<?xml version="1.0" encoding="UTF-8"?>
<svg version="1.1" xmlns="http://www.w3.org/2000/svg" width="200" height="200">
<path d="M0 0 C66 0 132 0 200 0 C200 66 200 132 200 200 C134 200 68 200 0 200 C0 134 0 68 0 0 Z " fill="#061A2E" transform="translate(0,0)"/>
<path d="M0 0 C0.66330322 0.27134766 1.32660645 0.54269531 2.01000977 0.82226562 C3.92531276 1.60597848 5.8377202 2.39644711 7.75 3.1875 C12.35607914 5.06405076 16.9689719 6.90689332 21.63671875 8.625 C28.53762235 11.16689022 35.26752068 13.67615704 41.75 17.1875 C41.75 18.5075 41.75 19.8275 41.75 21.1875 C35.35 24.26442308 35.35 24.26442308 32.3125 23.875 C31.796875 23.648125 31.28125 23.42125 30.75 23.1875 C31.41 21.8675 32.07 20.5475 32.75 19.1875 C27.78959676 17.10199343 22.82738746 15.02086407 17.86352539 12.94360352 C16.17846338 12.23774492 14.49388303 11.53073527 12.80981445 10.82250977 C10.37579997 9.7991419 7.94002843 8.78005741 5.50390625 7.76171875 C4.76290176 7.44909592 4.02189728 7.13647308 3.25843811 6.81437683 C1.8157732 6.21315296 0.36750398 5.62518678 -1.08625793 5.05131531 C-2.5573082 4.46403841 -4.01323765 3.83771644 -5.45317078 3.17781067 C-9.7693002 1.38435157 -12.51967406 0.88969375 -17.00366211 2.4074707 C-18.69072304 3.11358733 -20.36512266 3.85052551 -22.02734375 4.61328125 C-22.91990372 4.99485886 -23.81246368 5.37643646 -24.73207092 5.76957703 C-27.56304403 6.98633827 -30.37480373 8.24164415 -33.1875 9.5 C-36.02847003 10.73861779 -38.87278625 11.96924805 -41.71791077 13.19828796 C-43.48291946 13.96426845 -45.2447938 14.73751952 -47.00315857 15.51863098 C-47.79480911 15.86866684 -48.58645966 16.2187027 -49.40209961 16.5793457 C-50.09887314 16.89039749 -50.79564667 17.20144928 -51.51353455 17.52192688 C-53.25 18.1875 -53.25 18.1875 -55.25 18.1875 C-55.25 18.8475 -55.25 19.5075 -55.25 20.1875 C-54.074375 20.55875 -52.89875 20.93 -51.6875 21.3125 C-44.75427506 23.61992975 -38.01719208 26.44013569 -31.25 29.1875 C-28.65508966 30.23383482 -26.05957112 31.27748271 -23.45703125 32.3046875 C-21.98731504 32.89257399 -20.52604473 33.50203712 -19.07421875 34.1328125 C-12.29008149 36.96911847 -7.80000905 35.59188513 -1.1953125 32.90234375 C-0.08671875 32.45439453 1.021875 32.00644531 2.1640625 31.54492188 C3.30617188 31.07634766 4.44828125 30.60777344 5.625 30.125 C6.7903125 29.65255859 7.955625 29.18011719 9.15625 28.69335938 C12.02309544 27.53017209 14.88752807 26.36139942 17.75 25.1875 C11.94251138 22.23057085 6.13045021 19.4067094 0.125 16.875 C-1.08414063 16.36324219 -2.29328125 15.85148437 -3.5390625 15.32421875 C-4.43367188 14.94910156 -5.32828125 14.57398437 -6.25 14.1875 C-5.92 12.8675 -5.59 11.5475 -5.25 10.1875 C0.68723198 11.16888912 6.01250706 13.57867118 11.55297852 15.8527832 C13.43940563 16.62578087 15.32977602 17.38847771 17.22070312 18.15039062 C19.00444336 18.87838867 19.00444336 18.87838867 20.82421875 19.62109375 C21.91307373 20.06509521 23.00192871 20.50909668 24.1237793 20.96655273 C26.75 22.1875 26.75 22.1875 28.75 24.1875 C29.00133272 26.49233533 29.1543746 28.80847463 29.25 31.125 C29.37785574 36.50168802 29.37785574 36.50168802 31.75 41.1875 C31.375 44.375 31.375 44.375 30.75 47.1875 C30.09 47.1875 29.43 47.1875 28.75 47.1875 C28.75 48.8375 28.75 50.4875 28.75 52.1875 C27.43 52.5175 26.11 52.8475 24.75 53.1875 C24.275625 52.218125 23.80125 51.24875 23.3125 50.25 C22.04806053 47.38272563 22.04806053 47.38272563 20.75 46.1875 C20.5625 43.25 20.5625 43.25 20.75 40.1875 C21.74 39.1975 21.74 39.1975 22.75 38.1875 C23.21162427 35.75497339 23.21162427 35.75497339 23.375 33.0625 C23.44976562 32.15242188 23.52453125 31.24234375 23.6015625 30.3046875 C23.67503906 29.25667969 23.67503906 29.25667969 23.75 28.1875 C23.12351562 28.47625 22.49703125 28.765 21.8515625 29.0625 C21.03429687 29.43375 20.21703125 29.805 19.375 30.1875 C18.56289062 30.55875 17.75078125 30.93 16.9140625 31.3125 C14.75 32.1875 14.75 32.1875 12.75 32.1875 C12.77664734 32.94345963 12.80329468 33.69941925 12.83074951 34.47828674 C13.07310923 41.66947173 13.25482094 48.85862744 13.37174606 56.0528574 C13.43388939 59.75017133 13.51785868 63.44406146 13.65527344 67.1394043 C14.68434646 95.55624572 14.68434646 95.55624572 7.046875 104.21875 C5.4659832 105.84428878 3.85428552 107.38629259 2.15637207 108.88870239 C0.27549907 110.62570599 -1.08406226 112.57036959 -2.46875 114.71484375 C-2.86320312 115.29814453 -3.25765625 115.88144531 -3.6640625 116.48242188 C-4.42448877 117.63263499 -5.17923288 118.78661558 -5.9296875 119.94335938 C-7.09375 121.65234375 -7.09375 121.65234375 -9.25 124.1875 C-10.57 124.1875 -11.89 124.1875 -13.25 124.1875 C-15.1875 122.125 -15.1875 122.125 -17.25 119.1875 C-18.03053099 118.09714119 -18.81182424 117.00732776 -19.59375 115.91796875 C-20.01398438 115.32419434 -20.43421875 114.73041992 -20.8671875 114.11865234 C-23.43397843 110.5340273 -26.09924951 107.02270789 -28.75 103.5 C-29.27851562 102.79294922 -29.80703125 102.08589844 -30.3515625 101.35742188 C-32.65695129 98.15131978 -32.65695129 98.15131978 -35.25 95.1875 C-35.3440067 93.22380847 -35.36743381 91.25670801 -35.36352539 89.29077148 C-35.36344986 88.02953964 -35.36337433 86.7683078 -35.36329651 85.46885681 C-35.3581891 84.08210206 -35.35297309 82.69534771 -35.34765625 81.30859375 C-35.34579201 79.89754791 -35.34436814 78.48650143 -35.34336853 77.07545471 C-35.33954379 73.35509465 -35.3297139 69.6347734 -35.31866455 65.91442871 C-35.30844948 62.12069219 -35.30387071 58.32694942 -35.29882812 54.53320312 C-35.28809158 47.08461769 -35.2710157 39.63606428 -35.25 32.1875 C-35.91966797 31.99341553 -36.58933594 31.79933105 -37.27929688 31.59936523 C-38.16681641 31.33841064 -39.05433594 31.07745605 -39.96875 30.80859375 C-40.84466797 30.55263428 -41.72058594 30.2966748 -42.62304688 30.03295898 C-45.84783142 28.99509385 -48.86387341 27.6605667 -51.93359375 26.23828125 C-55.97681826 24.40417098 -60.11801053 22.80924117 -64.25 21.1875 C-64.25 19.8675 -64.25 18.5475 -64.25 17.1875 C-56.65927495 13.52211564 -49.04477404 10.27420229 -41.13818359 7.37304688 C-37.01053175 5.85615722 -32.93101349 4.26508846 -28.875 2.5625 C-27.92625 2.16546875 -26.9775 1.7684375 -26 1.359375 C-24.15906878 0.57488726 -22.3256325 -0.22741496 -20.5 -1.046875 C-19.63375 -1.42328125 -18.7675 -1.7996875 -17.875 -2.1875 C-17.12476563 -2.52523437 -16.37453125 -2.86296875 -15.6015625 -3.2109375 C-10.10412838 -4.61725786 -5.0250452 -2.10383788 0 0 Z " fill="#EB6319" transform="translate(111.25,39.8125)"/>
<path d="M0 0 C0.10125241 7.49296555 0.17140327 14.98575533 0.21972656 22.47924805 C0.23986697 25.02944532 0.26718097 27.57959628 0.30175781 30.12963867 C0.35016739 33.79096897 0.37294474 37.45168982 0.390625 41.11328125 C0.41127014 42.2571077 0.43191528 43.40093414 0.45318604 44.579422 C0.45348816 45.64029526 0.45379028 46.70116852 0.45410156 47.79418945 C0.46298401 48.72906693 0.47186646 49.6639444 0.48101807 50.62715149 C0 53 0 53 -1.89556885 54.83708191 C-4 56 -4 56 -6.125 55.8125 C-8 55 -8 55 -10 53 C-10.24050903 50.86129761 -10.24050903 50.86129761 -10.22705078 48.18310547 C-10.22689972 47.18221893 -10.22674866 46.1813324 -10.22659302 45.15011597 C-10.21627045 44.06674957 -10.20594788 42.98338318 -10.1953125 41.8671875 C-10.1924826 40.76021515 -10.18965271 39.6532428 -10.18673706 38.51272583 C-10.17551519 34.96670863 -10.15040691 31.42094125 -10.125 27.875 C-10.1149728 25.47526406 -10.1058465 23.07552417 -10.09765625 20.67578125 C-10.07556932 14.78376849 -10.04207207 8.89190209 -10 3 C-6.27034861 0.96564469 -4.33094958 0 0 0 Z " fill="#0B1B2E" transform="translate(120,75)"/>
<path d="M0 0 C3.75519057 0.51207144 6.66688525 1.2175082 10 3 C10.07595253 10.06576669 10.12855861 17.13142844 10.16479492 24.19750977 C10.17989816 26.60217218 10.20038208 29.00680698 10.22631836 31.41137695 C10.26263351 34.86416431 10.279711 38.31658804 10.29296875 41.76953125 C10.30845261 42.84773636 10.32393646 43.92594147 10.33988953 45.03681946 C10.34022942 46.53803596 10.34022942 46.53803596 10.34057617 48.06958008 C10.34723801 48.95116287 10.35389984 49.83274567 10.36076355 50.74104309 C10 53 10 53 8.63887024 54.81987 C7 56 7 56 4.4375 55.8125 C2 55 2 55 0 53 C-0.24050903 50.74740601 -0.24050903 50.74740601 -0.22705078 47.90771484 C-0.22682419 46.31629166 -0.22682419 46.31629166 -0.22659302 44.69271851 C-0.21110916 42.96923691 -0.21110916 42.96923691 -0.1953125 41.2109375 C-0.1924826 40.03737701 -0.18965271 38.86381653 -0.18673706 37.6546936 C-0.17551355 33.89469338 -0.15040492 30.13492861 -0.125 26.375 C-0.11497301 23.8307326 -0.10584668 21.28646148 -0.09765625 18.7421875 C-0.07556714 12.4947109 -0.04206824 6.24737227 0 0 Z " fill="#0B1B2E" transform="translate(80,75)"/>
<path d="M0 0 C1.093125 0.185625 2.18625 0.37125 3.3125 0.5625 C6.93624133 1.2578068 6.93624133 1.2578068 10 0 C10.07596188 6.780933 10.1285625 13.5617566 10.16479492 20.34301758 C10.17989676 22.65067648 10.20037969 24.95830661 10.22631836 27.26586914 C10.26263975 30.57966199 10.27971236 33.89307592 10.29296875 37.20703125 C10.30845261 38.2414888 10.32393646 39.27594635 10.33988953 40.3417511 C10.34022942 41.78290535 10.34022942 41.78290535 10.34057617 43.25317383 C10.34723801 44.09922684 10.35389984 44.94527985 10.36076355 45.81697083 C9.91712132 48.50151016 9.18259297 49.41306054 7 51 C3.65807308 50.75546876 2.39456443 50.39456443 0 48 C-0.24050903 45.93722534 -0.24050903 45.93722534 -0.22705078 43.36669922 C-0.22689972 42.40585419 -0.22674866 41.44500916 -0.22659302 40.45504761 C-0.21627045 39.41542877 -0.20594788 38.37580994 -0.1953125 37.3046875 C-0.1924826 36.24210724 -0.18965271 35.17952698 -0.18673706 34.08474731 C-0.17551639 30.68138501 -0.15040837 27.27828314 -0.125 23.875 C-0.11497264 21.57161838 -0.10584637 19.26823264 -0.09765625 16.96484375 C-0.07557093 11.30980655 -0.04207489 5.65492187 0 0 Z " fill="#071A2E" transform="translate(95,80)"/>
<path d="M0 0 C11.22 0 22.44 0 34 0 C33.34 1.32 32.68 2.64 32 4 C31.42378906 5.16789063 31.42378906 5.16789063 30.8359375 6.359375 C28.19847413 10.67522415 26.28436329 12.66400623 21.296875 13.96875 C15.32385999 14.59203348 10.76283071 14.40029483 5.9609375 10.5859375 C0 3.41388889 0 3.41388889 0 0 Z " fill="#091B2E" transform="translate(83,135)"/>
</svg>
